<svg width="20" height="21" viewBox="0 0 20 21" fill="none" xmlns="http://www.w3.org/2000/svg">
<path d="M10 8.34167C9.08337 8.34167 8.33337 9.09242 8.33337 10.01C8.33337 10.9276 9.08337 11.6783 10 11.6783C10.9167 11.6783 11.6667 10.9276 11.6667 10.01C11.6667 9.09242 10.9167 8.34167 10 8.34167ZM15 8.34167C14.0834 8.34167 13.3334 9.09242 13.3334 10.01C13.3334 10.9276 14.0834 11.6783 15 11.6783C15.9167 11.6783 16.6667 10.9276 16.6667 10.01C16.6667 9.09242 15.9167 8.34167 15 8.34167ZM5.00004 8.34167C4.08337 8.34167 3.33337 9.09242 3.33337 10.01C3.33337 10.9276 4.08337 11.6783 5.00004 11.6783C5.91671 11.6783 6.66671 10.9276 6.66671 10.01C6.66671 9.09242 5.91671 8.34167 5.00004 8.34167Z" fill="black"/>
</svg>
